<svg width="24" height="22" viewBox="0 0 24 22" fill="none" xmlns="http://www.w3.org/2000/svg">
<path d="M11.992 0.602539C5.76954 0.602539 0.751465 4.61696 0.751465 9.49052C0.751465 12.6539 2.83899 15.4239 5.97027 17.0056L4.91045 20.9639C4.89047 21.0232 4.88739 21.0869 4.90157 21.1479C4.91575 21.2088 4.94663 21.2647 4.99074 21.3091C5.05506 21.3658 5.13782 21.3972 5.22358 21.3974C5.29468 21.3917 5.36215 21.3636 5.41627 21.3171L9.9767 18.2421C10.6499 18.335 11.3285 18.3832 12.008 18.3865C18.2224 18.3865 23.2485 14.3721 23.2485 9.49052C23.2485 4.60893 18.2064 0.602539 11.992 0.602539Z" fill="#392020"/>
<path d="M4.68538 8.08543H3.45695C3.30469 8.08984 3.15432 8.05085 3.02339 7.97301C2.96526 7.93659 2.91528 7.88853 2.8766 7.83188C2.83791 7.77523 2.81135 7.7112 2.79858 7.6438C2.79468 7.60107 2.79468 7.55814 2.79858 7.51541C2.79476 7.43545 2.81028 7.35571 2.84383 7.28303C2.87737 7.21034 2.92795 7.14686 2.99127 7.09789C3.13125 6.99651 3.3002 6.94296 3.47301 6.94528H7.17434C7.32781 6.93989 7.47921 6.98197 7.60791 7.06574C7.66741 7.10055 7.71844 7.14818 7.75732 7.20511C7.79619 7.26203 7.82194 7.32686 7.83272 7.39495C7.83663 7.435 7.83663 7.47536 7.83272 7.51541C7.8365 7.59651 7.82101 7.67735 7.78752 7.75131C7.75403 7.82528 7.70348 7.8902 7.64002 7.94086C7.50346 8.04212 7.33614 8.0932 7.16631 8.08543H5.97803V12.3087C5.98286 12.3986 5.96894 12.4886 5.93715 12.5729C5.90536 12.6572 5.8564 12.734 5.79337 12.7984C5.73293 12.86 5.66027 12.9082 5.58007 12.94C5.49987 12.9718 5.4139 12.9865 5.32769 12.9831C5.1769 12.9874 5.02931 12.9392 4.91019 12.8466C4.79677 12.7562 4.7198 12.6279 4.69341 12.4853C4.68547 12.4267 4.68547 12.3673 4.69341 12.3087L4.68538 8.08543Z" fill="#FEE500"/>
<path d="M8.18702 7.25859C8.22234 7.12647 8.30527 7.01206 8.41986 6.93742C8.54196 6.86821 8.6811 6.83482 8.82131 6.84107H9.12641C9.27518 6.83574 9.42251 6.87188 9.55194 6.94545C9.68909 7.03768 9.78654 7.17811 9.82493 7.33886L11.4307 11.8752C11.4723 11.9936 11.5072 12.1143 11.5351 12.2366C11.5378 12.2874 11.5378 12.3383 11.5351 12.3891C11.5378 12.4673 11.5234 12.5452 11.4929 12.6174C11.4624 12.6895 11.4165 12.7541 11.3584 12.8066C11.3022 12.8643 11.2347 12.9097 11.1601 12.9401C11.0855 12.9705 11.0054 12.9852 10.9249 12.9832C10.801 12.9955 10.6767 12.9658 10.5718 12.8988C10.4669 12.8318 10.3877 12.7315 10.3468 12.6139L10.0096 11.6264H7.89798L7.56077 12.6139C7.52088 12.7338 7.44067 12.8361 7.33379 12.9034C7.22692 12.9708 7.09999 12.999 6.97465 12.9832C6.83889 12.9868 6.7059 12.9443 6.59729 12.8628C6.49148 12.7786 6.42009 12.6587 6.39657 12.5256C6.39231 12.4802 6.39231 12.4345 6.39657 12.3891C6.38278 12.3094 6.38278 12.228 6.39657 12.1483C6.39657 12.06 6.45277 11.9635 6.48489 11.8752L8.18702 7.25859ZM8.98992 8.31043L8.22716 10.7191H9.74463L8.98992 8.31043Z" fill="#FEE500"/>
<path d="M11.719 7.5155C11.7108 7.33532 11.7743 7.15925 11.8956 7.02575C11.9572 6.96356 12.0313 6.91495 12.1129 6.88315C12.1945 6.85134 12.2818 6.83695 12.3693 6.841C12.5197 6.83925 12.6665 6.88726 12.7868 6.97753C12.8983 7.07171 12.9724 7.20271 12.9956 7.34683C13.0035 7.40275 13.0035 7.45958 12.9956 7.5155V11.7387H15.2035C15.3566 11.7367 15.507 11.7784 15.6371 11.8591C15.6955 11.8951 15.7458 11.9431 15.7845 11.9998C15.8232 12.0565 15.8496 12.1207 15.8619 12.1883C15.8619 12.1883 15.8619 12.2686 15.8619 12.3087C15.8657 12.3887 15.8502 12.4683 15.8166 12.541C15.7831 12.6137 15.7325 12.6773 15.6692 12.7263C15.5292 12.8276 15.3603 12.8811 15.1875 12.8788H12.4737C12.3008 12.8899 12.129 12.8449 11.9839 12.7504C11.8541 12.6533 11.7676 12.5091 11.743 12.3489C11.7372 12.2607 11.7372 12.1721 11.743 12.0839L11.719 7.5155Z" fill="#FEE500"/>
<path d="M16.0065 7.51542C16.0017 7.33576 16.0648 7.1609 16.1832 7.02567C16.3035 6.91632 16.4578 6.85175 16.6202 6.84298C16.7825 6.8342 16.943 6.88171 17.0744 6.97745C17.1883 7.0708 17.2652 7.20174 17.2911 7.34674C17.2951 7.40288 17.2951 7.45929 17.2911 7.51542V9.48247L19.3225 7.13798C19.4007 7.058 19.4839 6.983 19.5714 6.91325C19.6538 6.86414 19.7484 6.83904 19.8443 6.84092C19.9847 6.84015 20.1219 6.88218 20.2378 6.96137C20.2923 6.99813 20.339 7.04556 20.3748 7.10074C20.4107 7.15592 20.4351 7.21774 20.4465 7.28255C20.4498 7.29844 20.4498 7.31488 20.4465 7.33077C20.4426 7.3493 20.4426 7.3684 20.4465 7.38693C20.4462 7.47141 20.4241 7.55443 20.3823 7.62784C20.3397 7.70556 20.2885 7.77819 20.2297 7.84453L18.8969 9.30585L20.5027 11.7948V11.8751C20.5861 11.9901 20.6511 12.1175 20.6954 12.2525V12.2926C20.7047 12.3856 20.6913 12.4795 20.6563 12.5662C20.6214 12.6529 20.5659 12.7298 20.4947 12.7904C20.3607 12.8916 20.1969 12.9453 20.029 12.943C19.9175 12.9476 19.8067 12.9226 19.7079 12.8707C19.6009 12.7989 19.5128 12.7026 19.4509 12.5897L17.9575 10.181L17.243 10.9277V12.2685C17.2478 12.4481 17.1847 12.623 17.0663 12.7582C17.0029 12.8202 16.9274 12.8687 16.8446 12.9004C16.7617 12.9322 16.6732 12.9467 16.5846 12.943C16.4364 12.9461 16.2918 12.8978 16.1751 12.8065C16.0617 12.7161 15.9847 12.5878 15.9583 12.4452C15.9504 12.3866 15.9504 12.3271 15.9583 12.2685L16.0065 7.51542Z" fill="#FEE500"/>
</svg>
