<svg width="16" height="16" viewBox="0 0 16 16" fill="none" xmlns="http://www.w3.org/2000/svg">
<path d="M6.66634 10.6666H3.33301V14" stroke="#5E6473" stroke-width="1.6" stroke-linecap="round" stroke-linejoin="round"/>
<path d="M12.9451 9.99792C12.5713 10.9231 11.9455 11.7248 11.1387 12.312C10.332 12.8993 9.37668 13.2484 8.38141 13.3197C7.38614 13.391 6.39082 13.1818 5.50858 12.7156C4.62633 12.2495 3.89255 11.5452 3.39062 10.6828" stroke="#5E6473" stroke-width="1.6" stroke-linecap="round" stroke-linejoin="round"/>
<path d="M9.33301 5.33333H12.6663V2" stroke="#5E6473" stroke-width="1.6" stroke-linecap="round" stroke-linejoin="round"/>
<path d="M3.05469 6.00212C3.42848 5.07696 4.05431 4.27521 4.86105 3.688C5.66779 3.10079 6.62308 2.75168 7.61835 2.68034C8.61361 2.609 9.60893 2.81829 10.4912 3.28443C11.3734 3.75057 12.1072 4.45486 12.6091 5.31725" stroke="#5E6473" stroke-width="1.6" stroke-linecap="round" stroke-linejoin="round"/>
</svg>
