<svg width="24" height="24" viewBox="0 0 24 24" fill="none" xmlns="http://www.w3.org/2000/svg">
<path d="M10 16H5V21" stroke="#9CA7C0" stroke-width="2" stroke-linecap="round" stroke-linejoin="round"/>
<path d="M19.4176 14.9968C18.8569 16.3846 17.9182 17.5872 16.7081 18.468C15.498 19.3488 14.065 19.8725 12.5721 19.9795C11.0792 20.0865 9.58624 19.7726 8.26287 19.0734C6.9395 18.3742 5.83882 17.3177 5.08594 16.0241" stroke="#9CA7C0" stroke-width="2" stroke-linecap="round" stroke-linejoin="round"/>
<path d="M14 8H19V3" stroke="#9CA7C0" stroke-width="2" stroke-linecap="round" stroke-linejoin="round"/>
<path d="M4.58252 9.00315C5.1432 7.61541 6.08195 6.41278 7.29206 5.53197C8.50217 4.65116 9.93511 4.12749 11.428 4.02048C12.9209 3.91346 14.4139 4.2274 15.7373 4.92661C17.0606 5.62582 18.1613 6.68226 18.9142 7.97584" stroke="#9CA7C0" stroke-width="2" stroke-linecap="round" stroke-linejoin="round"/>
</svg>
